<mxfile host="app.diagrams.net" modified="2020-11-30T03:04:35.835Z" agent="5.0 (Windows NT 10.0; Win64; x64) AppleWebKit/537.36 (KHTML, like Gecko) Chrome/87.0.4280.66 Safari/537.36" etag="AbRp692t6tscGbXJ-fQV" version="13.10.4" type="github">
  <diagram id="SLStGJWWbtIfWfqQh3Ac" name="Page-1">
    <mxGraphModel dx="868" dy="425" grid="1" gridSize="10" guides="1" tooltips="1" connect="1" arrows="1" fold="1" page="1" pageScale="1" pageWidth="850" pageHeight="1100" math="0" shadow="0">
      <root>
        <mxCell id="0" />
        <mxCell id="1" parent="0" />
        <mxCell id="R5PGrLvmycQfad8IWAgw-1" value="Chủ gian hàng" style="rounded=0;whiteSpace=wrap;html=1;fontSize=12;" parent="1" vertex="1">
          <mxGeometry x="120" y="159" width="120" height="40" as="geometry" />
        </mxCell>
        <mxCell id="R5PGrLvmycQfad8IWAgw-5" value="" style="group;fontSize=12;" parent="1" vertex="1" connectable="0">
          <mxGeometry x="401" y="119" width="120" height="120" as="geometry" />
        </mxCell>
        <mxCell id="R5PGrLvmycQfad8IWAgw-2" value="Điều hướng người dùng đến trang ủy quyền laz celler center" style="ellipse;whiteSpace=wrap;html=1;aspect=fixed;fontSize=12;" parent="R5PGrLvmycQfad8IWAgw-5" vertex="1">
          <mxGeometry width="120" height="120" as="geometry" />
        </mxCell>
        <mxCell id="R5PGrLvmycQfad8IWAgw-3" value="" style="endArrow=none;html=1;exitX=0;exitY=0;exitDx=0;exitDy=0;entryX=1;entryY=0;entryDx=0;entryDy=0;fontSize=12;" parent="R5PGrLvmycQfad8IWAgw-5" source="R5PGrLvmycQfad8IWAgw-2" target="R5PGrLvmycQfad8IWAgw-2" edge="1">
          <mxGeometry width="50" height="50" relative="1" as="geometry">
            <mxPoint x="-110" y="110" as="sourcePoint" />
            <mxPoint x="-60" y="60" as="targetPoint" />
          </mxGeometry>
        </mxCell>
        <mxCell id="R5PGrLvmycQfad8IWAgw-4" value="12.1" style="text;html=1;strokeColor=none;fillColor=none;align=center;verticalAlign=middle;whiteSpace=wrap;rounded=0;fontSize=12;" parent="R5PGrLvmycQfad8IWAgw-5" vertex="1">
          <mxGeometry x="40" width="40" height="20" as="geometry" />
        </mxCell>
        <mxCell id="R5PGrLvmycQfad8IWAgw-6" value="" style="group;fontSize=12;" parent="1" vertex="1" connectable="0">
          <mxGeometry x="400" y="280" width="120" height="120" as="geometry" />
        </mxCell>
        <mxCell id="R5PGrLvmycQfad8IWAgw-7" value="Tạo access token đến laz open platform" style="ellipse;whiteSpace=wrap;html=1;aspect=fixed;fontSize=12;" parent="R5PGrLvmycQfad8IWAgw-6" vertex="1">
          <mxGeometry width="120" height="120" as="geometry" />
        </mxCell>
        <mxCell id="R5PGrLvmycQfad8IWAgw-8" value="" style="endArrow=none;html=1;exitX=0;exitY=0;exitDx=0;exitDy=0;entryX=1;entryY=0;entryDx=0;entryDy=0;fontSize=12;" parent="R5PGrLvmycQfad8IWAgw-6" source="R5PGrLvmycQfad8IWAgw-7" target="R5PGrLvmycQfad8IWAgw-7" edge="1">
          <mxGeometry width="50" height="50" relative="1" as="geometry">
            <mxPoint x="-110" y="110" as="sourcePoint" />
            <mxPoint x="-60" y="60" as="targetPoint" />
          </mxGeometry>
        </mxCell>
        <mxCell id="R5PGrLvmycQfad8IWAgw-9" value="12.2" style="text;html=1;strokeColor=none;fillColor=none;align=center;verticalAlign=middle;whiteSpace=wrap;rounded=0;fontSize=12;" parent="R5PGrLvmycQfad8IWAgw-6" vertex="1">
          <mxGeometry x="40" width="40" height="20" as="geometry" />
        </mxCell>
        <mxCell id="R5PGrLvmycQfad8IWAgw-10" value="" style="group;fontSize=12;" parent="1" vertex="1" connectable="0">
          <mxGeometry x="400" y="440" width="120" height="120" as="geometry" />
        </mxCell>
        <mxCell id="R5PGrLvmycQfad8IWAgw-11" value="Xử lý token" style="ellipse;whiteSpace=wrap;html=1;aspect=fixed;fontSize=12;" parent="R5PGrLvmycQfad8IWAgw-10" vertex="1">
          <mxGeometry width="120" height="120" as="geometry" />
        </mxCell>
        <mxCell id="R5PGrLvmycQfad8IWAgw-12" value="" style="endArrow=none;html=1;exitX=0;exitY=0;exitDx=0;exitDy=0;entryX=1;entryY=0;entryDx=0;entryDy=0;fontSize=12;" parent="R5PGrLvmycQfad8IWAgw-10" source="R5PGrLvmycQfad8IWAgw-11" target="R5PGrLvmycQfad8IWAgw-11" edge="1">
          <mxGeometry width="50" height="50" relative="1" as="geometry">
            <mxPoint x="-110" y="110" as="sourcePoint" />
            <mxPoint x="-60" y="60" as="targetPoint" />
          </mxGeometry>
        </mxCell>
        <mxCell id="R5PGrLvmycQfad8IWAgw-13" value="12.3" style="text;html=1;strokeColor=none;fillColor=none;align=center;verticalAlign=middle;whiteSpace=wrap;rounded=0;fontSize=12;" parent="R5PGrLvmycQfad8IWAgw-10" vertex="1">
          <mxGeometry x="40" width="40" height="20" as="geometry" />
        </mxCell>
        <mxCell id="R5PGrLvmycQfad8IWAgw-14" value="Laz Open Platform" style="rounded=0;whiteSpace=wrap;html=1;fontSize=12;" parent="1" vertex="1">
          <mxGeometry x="720" y="168" width="120" height="40" as="geometry" />
        </mxCell>
        <mxCell id="R5PGrLvmycQfad8IWAgw-15" value="" style="endArrow=classic;html=1;exitX=1;exitY=0.5;exitDx=0;exitDy=0;fontSize=12;" parent="1" source="R5PGrLvmycQfad8IWAgw-1" target="R5PGrLvmycQfad8IWAgw-2" edge="1">
          <mxGeometry width="50" height="50" relative="1" as="geometry">
            <mxPoint x="160" y="358" as="sourcePoint" />
            <mxPoint x="210" y="308" as="targetPoint" />
          </mxGeometry>
        </mxCell>
        <mxCell id="R5PGrLvmycQfad8IWAgw-17" value="Yêu cầu ủy quyền tài &lt;br style=&quot;font-size: 12px;&quot;&gt;khoản laz celler center" style="edgeLabel;html=1;align=center;verticalAlign=middle;resizable=0;points=[];rotation=0;fontSize=12;" parent="R5PGrLvmycQfad8IWAgw-15" vertex="1" connectable="0">
          <mxGeometry x="-0.2017" y="-2" relative="1" as="geometry">
            <mxPoint x="14.519999999999996" y="-22" as="offset" />
          </mxGeometry>
        </mxCell>
        <mxCell id="R5PGrLvmycQfad8IWAgw-18" value="" style="endArrow=classic;html=1;fontSize=12;" parent="1" edge="1">
          <mxGeometry width="50" height="50" relative="1" as="geometry">
            <mxPoint x="521" y="178" as="sourcePoint" />
            <mxPoint x="720" y="178" as="targetPoint" />
          </mxGeometry>
        </mxCell>
        <mxCell id="R5PGrLvmycQfad8IWAgw-19" value="Thông tin đăng nhập tài &lt;br style=&quot;font-size: 12px;&quot;&gt;khoản laz celler center" style="edgeLabel;html=1;align=center;verticalAlign=middle;resizable=0;points=[];fontSize=12;rotation=0;" parent="R5PGrLvmycQfad8IWAgw-18" vertex="1" connectable="0">
          <mxGeometry x="-0.4353" y="2" relative="1" as="geometry">
            <mxPoint x="43" y="-16.999999999999996" as="offset" />
          </mxGeometry>
        </mxCell>
        <mxCell id="R5PGrLvmycQfad8IWAgw-20" value="" style="endArrow=classic;html=1;fontSize=12;exitX=0.5;exitY=1;exitDx=0;exitDy=0;entryX=1;entryY=0.5;entryDx=0;entryDy=0;" parent="1" source="R5PGrLvmycQfad8IWAgw-14" target="R5PGrLvmycQfad8IWAgw-7" edge="1">
          <mxGeometry width="50" height="50" relative="1" as="geometry">
            <mxPoint x="930" y="138" as="sourcePoint" />
            <mxPoint x="680" y="348" as="targetPoint" />
            <Array as="points">
              <mxPoint x="780" y="340" />
            </Array>
          </mxGeometry>
        </mxCell>
        <mxCell id="R5PGrLvmycQfad8IWAgw-21" value="code tạo access token" style="edgeLabel;html=1;align=center;verticalAlign=middle;resizable=0;points=[];fontSize=12;rotation=0;" parent="R5PGrLvmycQfad8IWAgw-20" vertex="1" connectable="0">
          <mxGeometry x="0.2631" y="2" relative="1" as="geometry">
            <mxPoint x="-54" y="-22" as="offset" />
          </mxGeometry>
        </mxCell>
        <mxCell id="R5PGrLvmycQfad8IWAgw-22" value="Laz Open Platform" style="rounded=0;whiteSpace=wrap;html=1;fontSize=12;" parent="1" vertex="1">
          <mxGeometry x="120" y="320" width="120" height="40" as="geometry" />
        </mxCell>
        <mxCell id="R5PGrLvmycQfad8IWAgw-24" value="" style="endArrow=classic;html=1;fontSize=12;entryX=1;entryY=0.25;entryDx=0;entryDy=0;" parent="1" target="R5PGrLvmycQfad8IWAgw-22" edge="1">
          <mxGeometry width="50" height="50" relative="1" as="geometry">
            <mxPoint x="399" y="330" as="sourcePoint" />
            <mxPoint x="300" y="470" as="targetPoint" />
          </mxGeometry>
        </mxCell>
        <mxCell id="R5PGrLvmycQfad8IWAgw-25" value="Yêu cầu tạo token" style="edgeLabel;html=1;align=center;verticalAlign=middle;resizable=0;points=[];fontSize=12;" parent="R5PGrLvmycQfad8IWAgw-24" vertex="1" connectable="0">
          <mxGeometry x="0.175" y="2" relative="1" as="geometry">
            <mxPoint x="14.04" y="-22" as="offset" />
          </mxGeometry>
        </mxCell>
        <mxCell id="R5PGrLvmycQfad8IWAgw-26" value="" style="endArrow=classic;html=1;fontSize=12;entryX=0;entryY=0.5;entryDx=0;entryDy=0;exitX=0.75;exitY=1;exitDx=0;exitDy=0;" parent="1" target="R5PGrLvmycQfad8IWAgw-11" edge="1" source="R5PGrLvmycQfad8IWAgw-22">
          <mxGeometry width="50" height="50" relative="1" as="geometry">
            <mxPoint x="230" y="370" as="sourcePoint" />
            <mxPoint x="540" y="490" as="targetPoint" />
            <Array as="points">
              <mxPoint x="210" y="500" />
            </Array>
          </mxGeometry>
        </mxCell>
        <mxCell id="R5PGrLvmycQfad8IWAgw-27" value="Access token" style="edgeLabel;html=1;align=center;verticalAlign=middle;resizable=0;points=[];fontSize=12;rotation=0;" parent="R5PGrLvmycQfad8IWAgw-26" vertex="1" connectable="0">
          <mxGeometry x="-0.2312" y="-2" relative="1" as="geometry">
            <mxPoint x="111.23" y="-13.57" as="offset" />
          </mxGeometry>
        </mxCell>
        <mxCell id="R5PGrLvmycQfad8IWAgw-28" value="Access token" style="shape=partialRectangle;whiteSpace=wrap;html=1;left=0;right=0;fillColor=none;fontSize=12;" parent="1" vertex="1">
          <mxGeometry x="720" y="480" width="120" height="40" as="geometry" />
        </mxCell>
        <mxCell id="R5PGrLvmycQfad8IWAgw-29" value="" style="endArrow=classic;html=1;fontSize=12;exitX=1;exitY=0.5;exitDx=0;exitDy=0;entryX=0;entryY=0.5;entryDx=0;entryDy=0;" parent="1" source="R5PGrLvmycQfad8IWAgw-11" target="R5PGrLvmycQfad8IWAgw-28" edge="1">
          <mxGeometry width="50" height="50" relative="1" as="geometry">
            <mxPoint x="720" y="710" as="sourcePoint" />
            <mxPoint x="770" y="660" as="targetPoint" />
          </mxGeometry>
        </mxCell>
        <mxCell id="R5PGrLvmycQfad8IWAgw-30" value="Thông tin access token" style="edgeLabel;html=1;align=center;verticalAlign=middle;resizable=0;points=[];fontSize=12;rotation=0;" parent="R5PGrLvmycQfad8IWAgw-29" vertex="1" connectable="0">
          <mxGeometry x="-0.4148" y="-1" relative="1" as="geometry">
            <mxPoint x="32.79" y="-11" as="offset" />
          </mxGeometry>
        </mxCell>
        <mxCell id="R5PGrLvmycQfad8IWAgw-31" value="" style="group;fontSize=12;" parent="1" vertex="1" connectable="0">
          <mxGeometry x="400" y="600" width="120" height="120" as="geometry" />
        </mxCell>
        <mxCell id="R5PGrLvmycQfad8IWAgw-32" value="Hẹn giờ refresh token" style="ellipse;whiteSpace=wrap;html=1;aspect=fixed;fontSize=12;" parent="R5PGrLvmycQfad8IWAgw-31" vertex="1">
          <mxGeometry width="120" height="120" as="geometry" />
        </mxCell>
        <mxCell id="R5PGrLvmycQfad8IWAgw-33" value="" style="endArrow=none;html=1;exitX=0;exitY=0;exitDx=0;exitDy=0;entryX=1;entryY=0;entryDx=0;entryDy=0;fontSize=12;" parent="R5PGrLvmycQfad8IWAgw-31" source="R5PGrLvmycQfad8IWAgw-32" target="R5PGrLvmycQfad8IWAgw-32" edge="1">
          <mxGeometry width="50" height="50" relative="1" as="geometry">
            <mxPoint x="-110" y="110" as="sourcePoint" />
            <mxPoint x="-60" y="60" as="targetPoint" />
          </mxGeometry>
        </mxCell>
        <mxCell id="R5PGrLvmycQfad8IWAgw-34" value="12.4" style="text;html=1;strokeColor=none;fillColor=none;align=center;verticalAlign=middle;whiteSpace=wrap;rounded=0;fontSize=12;" parent="R5PGrLvmycQfad8IWAgw-31" vertex="1">
          <mxGeometry x="40" width="40" height="20" as="geometry" />
        </mxCell>
        <mxCell id="R5PGrLvmycQfad8IWAgw-35" value="" style="endArrow=classic;html=1;fontSize=12;exitX=0.5;exitY=1;exitDx=0;exitDy=0;entryX=1;entryY=0.5;entryDx=0;entryDy=0;" parent="1" source="R5PGrLvmycQfad8IWAgw-28" target="R5PGrLvmycQfad8IWAgw-32" edge="1">
          <mxGeometry width="50" height="50" relative="1" as="geometry">
            <mxPoint x="830" y="670" as="sourcePoint" />
            <mxPoint x="740" y="635" as="targetPoint" />
            <Array as="points">
              <mxPoint x="780" y="660" />
            </Array>
          </mxGeometry>
        </mxCell>
        <mxCell id="mkMfAUHAmK-2bPL1mv0b-5" value="Thông tin access token" style="edgeLabel;html=1;align=center;verticalAlign=middle;resizable=0;points=[];fontSize=12;" parent="R5PGrLvmycQfad8IWAgw-35" vertex="1" connectable="0">
          <mxGeometry x="0.143" y="2" relative="1" as="geometry">
            <mxPoint x="-33" y="-12" as="offset" />
          </mxGeometry>
        </mxCell>
        <mxCell id="mkMfAUHAmK-2bPL1mv0b-1" value="" style="endArrow=classic;html=1;exitX=0;exitY=1;exitDx=0;exitDy=0;fontSize=12;" parent="1" edge="1">
          <mxGeometry width="50" height="50" relative="1" as="geometry">
            <mxPoint x="720" y="198" as="sourcePoint" />
            <mxPoint x="518" y="198" as="targetPoint" />
          </mxGeometry>
        </mxCell>
        <mxCell id="mkMfAUHAmK-2bPL1mv0b-2" value="Thông báo thông&lt;br style=&quot;font-size: 12px;&quot;&gt;&amp;nbsp;tin đăng nhập sai" style="edgeLabel;html=1;align=center;verticalAlign=middle;resizable=0;points=[];fontSize=12;" parent="mkMfAUHAmK-2bPL1mv0b-1" vertex="1" connectable="0">
          <mxGeometry x="0.3781" y="1" relative="1" as="geometry">
            <mxPoint x="29.000000000000004" y="19" as="offset" />
          </mxGeometry>
        </mxCell>
        <mxCell id="mkMfAUHAmK-2bPL1mv0b-3" value="" style="endArrow=classic;html=1;exitX=1;exitY=0.75;exitDx=0;exitDy=0;fontSize=12;" parent="1" source="R5PGrLvmycQfad8IWAgw-22" edge="1">
          <mxGeometry width="50" height="50" relative="1" as="geometry">
            <mxPoint x="500" y="410" as="sourcePoint" />
            <mxPoint x="402" y="350" as="targetPoint" />
          </mxGeometry>
        </mxCell>
        <mxCell id="mkMfAUHAmK-2bPL1mv0b-4" value="Thông báo yêu &lt;br style=&quot;font-size: 12px;&quot;&gt;cầu không hợp lề" style="edgeLabel;html=1;align=center;verticalAlign=middle;resizable=0;points=[];fontSize=12;" parent="mkMfAUHAmK-2bPL1mv0b-3" vertex="1" connectable="0">
          <mxGeometry x="-0.0687" y="-5" relative="1" as="geometry">
            <mxPoint x="-5" y="15" as="offset" />
          </mxGeometry>
        </mxCell>
        <mxCell id="mkMfAUHAmK-2bPL1mv0b-6" value="" style="endArrow=classic;html=1;entryX=0.5;entryY=1;entryDx=0;entryDy=0;exitX=0;exitY=0.5;exitDx=0;exitDy=0;fontSize=12;" parent="1" source="R5PGrLvmycQfad8IWAgw-32" target="R5PGrLvmycQfad8IWAgw-22" edge="1">
          <mxGeometry width="50" height="50" relative="1" as="geometry">
            <mxPoint x="250" y="660" as="sourcePoint" />
            <mxPoint x="300" y="610" as="targetPoint" />
            <Array as="points">
              <mxPoint x="180" y="660" />
            </Array>
          </mxGeometry>
        </mxCell>
        <mxCell id="mkMfAUHAmK-2bPL1mv0b-7" value="Yêu cầu refresh token" style="edgeLabel;html=1;align=center;verticalAlign=middle;resizable=0;points=[];fontSize=12;" parent="mkMfAUHAmK-2bPL1mv0b-6" vertex="1" connectable="0">
          <mxGeometry x="-0.2625" y="1" relative="1" as="geometry">
            <mxPoint x="81" y="-11" as="offset" />
          </mxGeometry>
        </mxCell>
      </root>
    </mxGraphModel>
  </diagram>
</mxfile>
